# xmcd
#
# Track frame offsets:
#	150
#	16333
#	32961
#	48268
#	65008
#	82903
#	99056
#	116811
#	127829
#	143378
#	155820
#	171459
#	187709
# Disc length: 2725 seconds
# Revision: 1
# Processed by: cddbd v1.5.2PL0 Copyright (c) Steve Scherf et al.
#
# Submitted via: libkcddb 0.31
#
DISCID=9f0aa30d
DTITLE=Boi Pirilampo - Arte Popular do Maranhão 2004
DYEAR=2004
DGENRE=Sertanejo
TTITLE0=Zacárias - Porteira
TTITLE1=Chagas Boi da Maioba - Mulher
TTITLE2=Zacárias - Namorada
TTITLE3=Vovô - Cheiro de Flor
TTITLE4=Vovô - Vem
TTITLE5=Godinho - Rompendo Aurora
TTITLE6=Vovô - Constelação
TTITLE7=Godinho - Cinderela
TTITLE8=Godinho - Divina Lua dos Poetas
TTITLE9=Zacárias - Razante Ligeiro
TTITLE10=Vovô - Ninho
TTITLE11=Zacárias - Vagalume
TTITLE12=Vovô - Água da Fonte
EXTD=
EXTT0=RD e Godinho
EXTT1=RD, Godinho
EXTT2=Eno Cabessa
EXTT3=RD e Godinho
EXTT4=RD, Godinho, Escrete e Augusto Bastos
EXTT5=RD, Godinho
EXTT6=Augusto Bastos e Veiga Neto
EXTT7=Inaldo Bartolomeu
EXTT8=RD, Godinho
EXTT9=RD e Godinho
EXTT10=Vovô
EXTT11=Zé Lopes
EXTT12=Tony Blayr - Chico Newman
PLAYORDER=
